<svg version="1.1" id="Layer_1" xmlns="http://www.w3.org/2000/svg" xmlns:xlink="http://www.w3.org/1999/xlink" x="0px" y="0px"
	 width="100%" viewBox="0 0 496 496" enable-background="new 0 0 496 496" xml:space="preserve">
<path fill="#c5050c" opacity="1.000000" stroke="none" 
	d="
M298.000000,497.000000 
	C198.666687,497.000000 99.833382,497.000000 1.000053,497.000000 
	C1.000035,331.666718 1.000035,166.333466 1.000018,1.000142 
	C166.333237,1.000095 331.666473,1.000095 496.999756,1.000047 
	C496.999847,166.333191 496.999847,331.666382 496.999939,496.999786 
	C430.833344,497.000000 364.666656,497.000000 298.000000,497.000000 
M486.765228,295.567261 
	C488.242981,288.417206 489.236969,281.217438 489.793884,273.920837 
	C491.519775,251.311142 491.332458,228.797943 487.115631,206.440231 
	C482.246826,180.625778 473.592804,156.178757 460.543091,133.332535 
	C445.639893,107.241241 426.970062,84.337708 403.531036,65.382820 
	C386.770660,51.828911 368.723206,40.409214 349.068970,31.551323 
	C323.856995,20.188665 297.361816,13.282845 269.863281,11.666291 
	C250.349319,10.519125 230.715393,10.794237 211.215820,14.286754 
	C182.774185,19.380859 155.938141,28.643490 131.069244,43.296215 
	C105.656120,58.269604 83.439346,76.999496 64.985054,100.191124 
	C50.816643,117.996666 39.074013,137.157501 30.324532,158.143066 
	C21.133179,180.188461 15.197157,203.047791 13.249159,226.910675 
	C11.594487,247.180328 11.436059,267.452332 14.679629,287.542297 
	C18.966833,314.096283 27.197268,339.360565 40.073036,363.160522 
	C49.387215,380.377136 60.328796,396.420563 73.374733,410.837097 
	C95.234398,434.993286 121.019348,454.013245 150.679245,467.885132 
	C176.563690,479.991272 203.701538,487.428406 232.009216,489.321045 
	C258.219177,491.073425 284.458466,489.824219 310.146423,482.935242 
	C330.304047,477.529388 349.587585,470.136108 367.856506,459.991699 
	C383.906769,451.079224 398.864258,440.607727 412.334229,428.227112 
	C436.184082,406.306183 455.294586,380.831604 468.903412,351.243256 
	C477.008881,333.620270 482.953430,315.410248 486.765228,295.567261 
z"/>
<path fill="#c5050c" opacity="1.000000" stroke="none" 
	d="
M306.673889,116.401260 
	C310.771332,114.250694 314.146271,114.851135 316.861969,118.062187 
	C319.619659,121.322884 319.138062,124.782677 317.042603,128.232788 
	C312.272278,136.086884 306.358154,143.105515 300.868652,150.432953 
	C276.504669,182.954208 257.033325,218.385361 238.563263,254.450424 
	C222.164108,286.471771 207.897751,319.543152 190.696487,351.161987 
	C187.984711,356.146667 185.045807,360.986664 180.507263,364.608582 
	C169.907272,373.067902 157.266312,369.624451 152.921127,356.754578 
	C149.852921,347.666992 149.565750,338.192383 150.150696,328.627502 
	C151.175034,311.877380 153.890366,295.370728 157.421265,277.472900 
	C149.873032,286.821259 144.710129,295.903595 139.369949,304.851074 
	C128.530914,323.011902 117.803680,341.239532 107.054840,359.454102 
	C104.322556,364.084106 101.026260,368.258514 97.043648,371.849762 
	C88.371841,379.669373 77.007545,376.283203 74.438721,364.909729 
	C72.146553,354.761139 74.296196,344.678040 76.176559,334.731415 
	C83.042091,298.414337 95.973076,263.972107 109.195183,229.644501 
	C119.726349,202.303238 131.408264,175.409821 141.131638,147.753098 
	C142.896194,142.734055 144.072433,137.499207 146.559341,132.746704 
	C149.445007,127.232170 153.833054,124.228416 160.262024,124.650589 
	C164.871735,124.953293 167.159058,127.185112 167.332779,131.920441 
	C167.613068,139.560349 165.274597,146.734207 162.846115,153.789093 
	C154.274902,178.689026 143.463730,202.684753 132.953629,226.797989 
	C117.678024,261.844666 106.472336,298.202759 97.926926,335.418549 
	C97.790344,336.013397 97.810051,336.644135 97.690315,338.025330 
	C100.653793,335.999664 102.034821,333.539032 103.612335,331.319977 
	C117.916695,311.198090 129.867035,289.598999 142.876328,268.663544 
	C152.898605,252.535049 162.972763,236.438309 173.123459,220.390457 
	C175.796890,216.163849 178.867844,212.174820 182.964035,209.179260 
	C184.560989,208.011383 186.310410,206.951355 188.142639,206.227814 
	C191.497528,204.902969 195.208939,204.169037 198.027771,206.932220 
	C200.754120,209.604782 199.725891,213.214279 198.541046,216.324463 
	C194.925766,225.814377 190.839127,235.131195 187.425323,244.690155 
	C177.508453,272.458405 171.250381,300.908234 172.335770,330.630310 
	C172.421021,332.964569 172.419327,335.280304 174.176620,337.583893 
	C176.603973,336.528564 177.615509,334.209869 178.865112,332.185486 
	C189.749619,314.552429 197.789459,295.482117 206.562851,276.799042 
	C227.762100,231.654953 250.305008,187.288773 279.807587,146.841644 
	C284.910126,139.846191 290.268890,133.034103 295.625977,126.229141 
	C298.626556,122.417557 302.109772,119.066193 306.673889,116.401260 
z"/>
<path fill="#c5050c" opacity="1.000000" stroke="none" 
	d="
M395.811676,225.943054 
	C393.659912,227.262604 391.881256,228.549820 389.914459,229.403915 
	C385.882874,231.154724 382.058716,230.822067 379.001709,227.337585 
	C375.979523,223.892731 375.146606,220.061020 377.390137,215.824203 
	C379.979706,210.933975 384.373260,207.809372 388.592682,204.586639 
	C400.577148,195.433151 410.027924,184.160339 417.101532,170.893158 
	C420.478821,164.558746 423.516998,158.053680 423.659637,150.656464 
	C423.854950,140.528381 418.605621,136.799332 408.859802,140.146591 
	C402.632843,142.285278 397.175751,145.852158 392.034851,149.832001 
	C362.291199,172.858200 338.589020,201.315170 318.553070,232.883850 
	C304.000610,255.812759 292.901825,280.330841 287.973358,307.260773 
	C286.206360,316.915802 284.749115,326.643402 289.165283,336.158722 
	C295.531891,349.876465 308.234375,355.140808 322.262115,349.530548 
	C337.043091,343.619049 348.359863,332.972809 359.069275,321.722290 
	C370.588013,309.621552 380.235016,296.015808 389.275177,281.989929 
	C391.363953,278.749207 393.487549,274.430939 398.003662,276.650421 
	C402.685883,278.951538 400.455017,283.563416 398.784973,286.757812 
	C383.037598,316.878540 363.053192,343.373077 333.222137,361.043793 
	C323.194214,366.983887 312.305725,370.850525 300.466553,370.051422 
	C283.186096,368.885040 272.454620,358.775818 266.569397,343.196075 
	C260.711884,327.689758 263.065491,312.041138 267.129211,296.611053 
	C273.517334,272.355072 285.250183,250.505920 298.241608,229.277100 
	C316.070831,200.143112 336.606812,173.156723 362.055389,150.191269 
	C375.239746,138.293411 389.151215,127.362038 407.083557,123.460526 
	C427.201691,119.083458 439.675018,132.676270 437.865936,151.615494 
	C435.831604,172.912674 425.738525,190.805466 413.121674,207.479660 
	C408.085693,214.135117 402.418762,220.238571 395.811676,225.943054 
z"/>
</svg>